<svg xmlns="http://www.w3.org/2000/svg" width="28" height="28" viewBox="0 0 28 28">
  <g id="vuesax_bold_notification" data-name="vuesax/bold/notification" transform="translate(0 0)">
    <g id="notification">
      <path id="Vector" d="M17.534,14.572l-1.167-1.937a4.334,4.334,0,0,1-.467-1.727V7.957a6.894,6.894,0,0,0-3.932-6.218A3.414,3.414,0,0,0,8.959,0,3.454,3.454,0,0,0,5.938,1.773a6.916,6.916,0,0,0-3.85,6.183v2.952a4.23,4.23,0,0,1-.467,1.715L.443,14.572A2.727,2.727,0,0,0,1.971,18.69a21.82,21.82,0,0,0,7.023,1.143A22.131,22.131,0,0,0,16.018,18.7a2.813,2.813,0,0,0,1.517-4.13Z" transform="translate(5.029 2.333)" fill="#2b50aa"/>
      <path id="Vector-2" data-name="Vector" d="M6.592.012a3.517,3.517,0,0,1-3.3,2.322A3.459,3.459,0,0,1,.817,1.3,3.221,3.221,0,0,1,0,0C.152.023.3.035.467.058c.268.035.548.07.828.093C1.96.21,2.637.245,3.313.245S4.643.21,5.3.152c.245-.023.49-.035.723-.07Z" transform="translate(10.71 23.333)" fill="#2b50aa"/>
      <path id="Vector-3" data-name="Vector" d="M0,0H28V28H0Z" transform="translate(28 28) rotate(180)" fill="none" opacity="0"/>
    </g>
  </g>
</svg>
