<svg xmlns="http://www.w3.org/2000/svg" width="105.2" height="105.2" viewBox="0 0 105.2 105.2">
  <g id="vuesax_bold_car" data-name="vuesax/bold/car" transform="translate(0)">
    <g id="car" transform="translate(0 0)">
      <path id="Vector" d="M85.475,25.949a3.311,3.311,0,0,1-3.287,3.287H3.288a3.287,3.287,0,1,1,0-6.575H7.759l1.666-7.934C11,7.057,14.29,0,27.352,0H58.123c13.062,0,16.35,7.057,17.928,14.728l1.666,7.934h4.471A3.311,3.311,0,0,1,85.475,25.949Z" transform="translate(9.862 9.117)" fill="#2b50aa"/>
      <path id="Vector-2" data-name="Vector" d="M91.75,14.947C91.092,7.715,89.164,0,75.093,0H19.162C5.091,0,3.207,7.715,2.505,14.947L.051,41.642A11.962,11.962,0,0,0,3.119,50.8a12.3,12.3,0,0,0,9.117,3.989h8.241c7.1,0,8.46-4.077,9.336-6.75l.877-2.63c1.008-3.024,1.271-3.77,5.216-3.77H58.349c3.945,0,4.077.438,5.216,3.77l.877,2.63c.877,2.674,2.236,6.75,9.336,6.75h8.241A12.372,12.372,0,0,0,91.136,50.8,11.962,11.962,0,0,0,94.2,41.642ZM33.978,24.108H20.828a3.288,3.288,0,1,1,0-6.575h13.15a3.288,3.288,0,1,1,0,6.575Zm39.45,0H60.278a3.288,3.288,0,1,1,0-6.575h13.15a3.288,3.288,0,1,1,0,6.575Z" transform="translate(5.472 44.929)" fill="#2b50aa"/>
      <path id="Vector-3" data-name="Vector" d="M0,0H105.2V105.2H0Z" transform="translate(105.2 105.2) rotate(180)" fill="none" opacity="0"/>
    </g>
  </g>
</svg>
