<svg id="vuesax_bold_car" data-name="vuesax/bold/car" xmlns="http://www.w3.org/2000/svg" width="30.867" height="30.867" viewBox="0 0 30.867 30.867">
  <g id="car">
    <path id="Vector" d="M25.079,7.614a.972.972,0,0,1-.965.965H.965a.965.965,0,1,1,0-1.929H2.276l.489-2.328C3.228,2.071,4.193,0,8.025,0h9.028c3.833,0,4.8,2.071,5.26,4.321L22.8,6.649h1.312A.972.972,0,0,1,25.079,7.614Z" transform="translate(2.894 2.675)" fill="#f6f9fd"/>
    <path id="Vector-2" data-name="Vector" d="M26.92,4.386C26.727,2.264,26.161,0,22.033,0H5.622C1.494,0,.941,2.264.735,4.386l-.72,7.832a3.51,3.51,0,0,0,.9,2.688,3.609,3.609,0,0,0,2.675,1.17H6.008A2.468,2.468,0,0,0,8.748,14.1L9,13.324c.3-.887.373-1.106,1.53-1.106H17.12c1.157,0,1.2.129,1.53,1.106l.257.772a2.468,2.468,0,0,0,2.739,1.981h2.418a3.63,3.63,0,0,0,2.675-1.17,3.51,3.51,0,0,0,.9-2.688ZM9.969,7.074H6.111a.965.965,0,1,1,0-1.929H9.969a.965.965,0,1,1,0,1.929Zm11.575,0H17.686a.965.965,0,0,1,0-1.929h3.858a.965.965,0,0,1,0,1.929Z" transform="translate(1.606 13.183)" fill="#f6f9fd"/>
    <path id="Vector-3" data-name="Vector" d="M0,0H30.867V30.867H0Z" transform="translate(30.867 30.867) rotate(180)" fill="none" opacity="0"/>
  </g>
</svg>
