<svg id="vuesax_bold_logout" data-name="vuesax/bold/logout" xmlns="http://www.w3.org/2000/svg" width="28" height="28" viewBox="0 0 28 28">
  <g id="logout">
    <path id="Vector" d="M9.1,0H6.067C2.333,0,0,2.333,0,6.067v4.725H7.292a.875.875,0,0,1,0,1.75H0v4.725C0,21,2.333,23.333,6.067,23.333H9.088c3.733,0,6.067-2.333,6.067-6.067V6.067C15.167,2.333,12.833,0,9.1,0Z" transform="translate(10.5 2.333)" fill="#2b50aa"/>
    <path id="Vector-2" data-name="Vector" d="M2.984,3.905,5.4,1.49A.865.865,0,0,0,5.655.872.846.846,0,0,0,5.4.254a.88.88,0,0,0-1.237,0L.254,4.162a.88.88,0,0,0,0,1.237L4.162,9.307A.874.874,0,0,0,5.4,8.07L2.984,5.655h5.18V3.905Z" transform="translate(2.336 9.22)" fill="#2b50aa"/>
    <path id="Vector-3" data-name="Vector" d="M0,0H28V28H0Z" transform="translate(28 28) rotate(180)" fill="none" opacity="0"/>
  </g>
</svg>
