<svg id="vuesax_bold_home-2" data-name="vuesax/bold/home-2" xmlns="http://www.w3.org/2000/svg" width="28" height="28" viewBox="0 0 28 28">
  <g id="home-2">
    <path id="Vector" d="M21.656,5.781,14.746.945A5.821,5.821,0,0,0,8.159,1.1L2.148,5.793A6.184,6.184,0,0,0,0,10.161v8.28A5.556,5.556,0,0,0,5.543,24H18.477a5.546,5.546,0,0,0,5.543-5.544V10.317A6.125,6.125,0,0,0,21.656,5.781ZM12.91,19.2a.9.9,0,1,1-1.8,0V15.6a.9.9,0,1,1,1.8,0Z" transform="translate(1.99 2.002)" fill="#2b50aa"/>
    <path id="Vector-2" data-name="Vector" d="M0,0H28V28H0Z" transform="translate(28 28) rotate(180)" fill="none" opacity="0"/>
  </g>
</svg>
