<svg id="vuesax_bold_buildings-2" data-name="vuesax/bold/buildings-2" xmlns="http://www.w3.org/2000/svg" width="28" height="28" viewBox="0 0 28 28">
  <g id="buildings-2">
    <path id="Vector" d="M0,0H28V28H0Z" fill="none" opacity="0"/>
    <path id="Vector-2" data-name="Vector" d="M10.153,2.538a.418.418,0,0,1-.413.413H8.406A4.635,4.635,0,0,0,3.778,7.579v10.9a.418.418,0,0,1-.413.413H2.538A2.534,2.534,0,0,1,0,16.351V2.538A2.534,2.534,0,0,1,2.538,0H7.615A2.534,2.534,0,0,1,10.153,2.538Z" transform="translate(2.361 2.361)" fill="#2b50aa"/>
    <path id="Vector-3" data-name="Vector" d="M10.153,2.538V16.351a2.534,2.534,0,0,1-2.538,2.538H6.871a.418.418,0,0,1-.413-.413V7.579A4.635,4.635,0,0,0,1.83,2.951H.413A.418.418,0,0,1,0,2.538,2.534,2.534,0,0,1,2.538,0H7.615A2.534,2.534,0,0,1,10.153,2.538Z" transform="translate(15.486 2.361)" fill="#2b50aa"/>
    <path id="Vector-4" data-name="Vector" d="M9.74,0H2.857A2.852,2.852,0,0,0,0,2.857V16.032a2.852,2.852,0,0,0,2.857,2.857H4.781a.585.585,0,0,0,.59-.59V15.347a.885.885,0,0,1,1.771,0V18.3a.585.585,0,0,0,.59.59H9.751A2.847,2.847,0,0,0,12.6,16.044V2.857A2.852,2.852,0,0,0,9.74,0ZM8.618,10.33H3.9a.885.885,0,1,1,0-1.771H8.618a.885.885,0,0,1,0,1.771Zm0-3.542H3.9a.885.885,0,0,1,0-1.771H8.618a.885.885,0,0,1,0,1.771Z" transform="translate(7.742 6.75)" fill="#2b50aa"/>
  </g>
</svg>
