<svg id="vuesax_bold_note" data-name="vuesax/bold/note" xmlns="http://www.w3.org/2000/svg" width="28" height="28" viewBox="0 0 28 28">
  <g id="note">
    <path id="Vector" d="M0,0H28V28H0Z" fill="none" opacity="0"/>
    <path id="Vector-2" data-name="Vector" d="M9.333,2.625A2.629,2.629,0,0,1,6.708,5.25H2.625a2.625,2.625,0,0,1,0-5.25H6.708A2.629,2.629,0,0,1,9.333,2.625Z" transform="translate(9.333 2.333)" fill="#2b50aa"/>
    <path id="Vector-3" data-name="Vector" d="M17.3.558a3.3,3.3,0,0,0-.9-.525.588.588,0,0,0-.747.49,4.359,4.359,0,0,1-4.282,3.5H7.292A4.342,4.342,0,0,1,4.2,2.739,4.317,4.317,0,0,1,3.01.534a.592.592,0,0,0-.758-.49C.9.593,0,1.829,0,4.314V15.689c0,3.5,2.088,4.667,4.667,4.667H14c2.578,0,4.667-1.167,4.667-4.667V4.314C18.667,2.413,18.142,1.246,17.3.558ZM4.667,8.981H9.333a.875.875,0,0,1,0,1.75H4.667a.875.875,0,0,1,0-1.75ZM14,15.4H4.667a.875.875,0,0,1,0-1.75H14a.875.875,0,1,1,0,1.75Z" transform="translate(4.667 5.311)" fill="#2b50aa"/>
    <path id="Vector-4" data-name="Vector" d="M0,0H28V28H0Z" transform="translate(28 28) rotate(180)" fill="none" opacity="0"/>
  </g>
</svg>
