<svg id="vuesax_bold_clipboard-tick" data-name="vuesax/bold/clipboard-tick" xmlns="http://www.w3.org/2000/svg" width="90" height="90" viewBox="0 0 90 90">
  <g id="clipboard-tick">
    <path id="Vector" d="M24.822,0H7.119A7.105,7.105,0,0,0,0,7.081v3.541A7.073,7.073,0,0,0,7.081,17.7H24.822A7.073,7.073,0,0,0,31.9,10.622V7.081A7.049,7.049,0,0,0,24.822,0Z" transform="translate(29.029 7.533)" fill="#2b50aa"/>
    <path id="Vector-2" data-name="Vector" d="M52.225,2.778A10.882,10.882,0,0,1,41.405,13.663H23.81A10.882,10.882,0,0,1,12.991,2.778,2.8,2.8,0,0,0,8.873.329,16.858,16.858,0,0,0,0,15.208V50.652A16.828,16.828,0,0,0,16.734,67.489H48.481A16.828,16.828,0,0,0,65.215,50.652V15.208A16.858,16.858,0,0,0,56.343.329,2.8,2.8,0,0,0,52.225,2.778ZM45.112,32.572,30.137,47.639a2.79,2.79,0,0,1-3.968,0l-5.616-5.65a2.854,2.854,0,0,1,0-3.993,2.812,2.812,0,0,1,3.968,0l3.631,3.654,12.991-13.07a2.812,2.812,0,0,1,3.968,0A2.854,2.854,0,0,1,45.112,32.572Z" transform="translate(12 15)" fill="#2b50aa"/>
    <path id="Vector-3" data-name="Vector" d="M0,0H90V90H0Z" transform="translate(90 90) rotate(180)" fill="none" opacity="0"/>
    <rect id="Rectangle_23337" data-name="Rectangle 23337" width="44" height="42" transform="translate(23 32)" fill="#2b50aa"/>
  </g>
  <g id="vuesax_bold_dollar-circle" data-name="vuesax/bold/dollar-circle" transform="translate(24.934 34)">
    <g id="dollar-circle">
      <path id="Vector-4" data-name="Vector" d="M0,4.766H1.087a2.085,2.085,0,0,0,1.99-2.14c0-1.455-.518-1.739-1.371-2.04L.017,0V4.766Z" transform="translate(21.321 21.856)" fill="#fff"/>
      <path id="Vector-5" data-name="Vector" d="M16.672,0A16.722,16.722,0,1,0,33.445,16.672,16.728,16.728,0,0,0,16.672,0ZM20.5,16.889a4.185,4.185,0,0,1,3.06,4.415,4.577,4.577,0,0,1-4.5,4.649H17.976v.97a1.254,1.254,0,1,1-2.508,0v-.97h-.6A5.062,5.062,0,0,1,9.9,20.8a1.254,1.254,0,0,1,2.508,0,2.56,2.56,0,0,0,2.458,2.642h.6V17.792l-2.525-.9a4.185,4.185,0,0,1-3.06-4.415,4.577,4.577,0,0,1,4.5-4.649h1.087v-.97a1.254,1.254,0,0,1,2.508,0v.97h.6a5.062,5.062,0,0,1,4.966,5.15,1.254,1.254,0,0,1-2.508,0,2.56,2.56,0,0,0-2.458-2.642h-.6v5.652Z" transform="translate(3.344 3.177)" fill="#fff"/>
      <path id="Vector-6" data-name="Vector" d="M0,2.157C0,3.612.518,3.9,1.371,4.2l1.689.585V0H1.973A2.076,2.076,0,0,0,0,2.157Z" transform="translate(15.752 13.512)" fill="#fff"/>
      <path id="Vector-7" data-name="Vector" d="M0,0H40.133V40.133H0Z" fill="none" opacity="0"/>
    </g>
  </g>
</svg>
