<svg id="vuesax_bold_clipboard-tick" data-name="vuesax/bold/clipboard-tick" xmlns="http://www.w3.org/2000/svg" width="90" height="90" viewBox="0 0 90 90">
  <g id="clipboard-tick">
    <path id="Vector" d="M24.822,0H7.119A7.105,7.105,0,0,0,0,7.081v3.541A7.073,7.073,0,0,0,7.081,17.7H24.822A7.073,7.073,0,0,0,31.9,10.622V7.081A7.049,7.049,0,0,0,24.822,0Z" transform="translate(29.029 7.533)" fill="#2b50aa"/>
    <path id="Vector-2" data-name="Vector" d="M52.225,2.778A10.882,10.882,0,0,1,41.405,13.663H23.81A10.882,10.882,0,0,1,12.991,2.778,2.8,2.8,0,0,0,8.873.329,16.858,16.858,0,0,0,0,15.208V50.652A16.828,16.828,0,0,0,16.734,67.489H48.481A16.828,16.828,0,0,0,65.215,50.652V15.208A16.858,16.858,0,0,0,56.343.329,2.8,2.8,0,0,0,52.225,2.778ZM45.112,32.572,30.137,47.639a2.79,2.79,0,0,1-3.968,0l-5.616-5.65a2.854,2.854,0,0,1,0-3.993,2.812,2.812,0,0,1,3.968,0l3.631,3.654,12.991-13.07a2.812,2.812,0,0,1,3.968,0A2.854,2.854,0,0,1,45.112,32.572Z" transform="translate(12.392 14.978)" fill="#2b50aa"/>
    <path id="Vector-3" data-name="Vector" d="M0,0H90V90H0Z" transform="translate(90 90) rotate(180)" fill="none" opacity="0"/>
  </g>
</svg>
