<svg id="vuesax_bold_export" data-name="vuesax/bold/export" xmlns="http://www.w3.org/2000/svg" width="32" height="32" viewBox="0 0 32 32">
  <g id="export" transform="translate(0 0)">
    <path id="Vector" d="M13.333,0A13.333,13.333,0,1,0,26.667,13.333,13.338,13.338,0,0,0,13.333,0Zm7,13.773a1,1,0,1,1-2,0V9.747L8.04,20.04a1,1,0,0,1-1.413,0,1.006,1.006,0,0,1,0-1.413L16.92,8.333H12.893a1,1,0,0,1,0-2h6.44a1.007,1.007,0,0,1,1,1Z" transform="translate(2.667 2.667)" fill="#15b62a"/>
    <path id="Vector-2" data-name="Vector" d="M0,0H32V32H0Z" transform="translate(32 32) rotate(180)" fill="none" opacity="0"/>
  </g>
</svg>
