<svg id="vuesax_bold_note" data-name="vuesax/bold/note" xmlns="http://www.w3.org/2000/svg" width="90" height="90" viewBox="0 0 90 90">
  <g id="note">
    <path id="Vector" d="M0,0H90V90H0Z" fill="none" opacity="0"/>
    <path id="Vector-2" data-name="Vector" d="M30.133,8.475a8.488,8.488,0,0,1-8.475,8.475H8.475A8.475,8.475,0,0,1,8.475,0H21.658a8.488,8.488,0,0,1,8.475,8.475Z" transform="translate(29.933 7.533)" fill="#2b50aa"/>
    <path id="Vector-3" data-name="Vector" d="M55.489,1.8a10.571,10.571,0,0,0-2.881-1.7,1.887,1.887,0,0,0-2.395,1.582,14.005,14.005,0,0,1-13.732,11.3h-13.1A13.88,13.88,0,0,1,13.47,8.844,13.966,13.966,0,0,1,9.654,1.725,1.9,1.9,0,0,0,7.221.143C2.881,1.913,0,5.906,0,13.929V50.654c0,11.3,6.7,15.067,14.967,15.067H44.9c8.269,0,14.967-3.767,14.967-15.067V13.929C59.867,7.789,58.183,4.023,55.489,1.8ZM14.967,29H29.933a2.825,2.825,0,0,1,0,5.65H14.967a2.825,2.825,0,0,1,0-5.65ZM44.9,49.712H14.967a2.825,2.825,0,0,1,0-5.65H44.9a2.825,2.825,0,0,1,0,5.65Z" transform="translate(15.067 16.746)" fill="#2b50aa"/>
    <path id="Vector-4" data-name="Vector" d="M0,0H90V90H0Z" transform="translate(90 90) rotate(180)" fill="none" opacity="0"/>
  </g>
</svg>
